<svg width="68" height="69" viewBox="0 0 68 69" fill="none" xmlns="http://www.w3.org/2000/svg">
<g filter="url(#filter0_i_21_308)">
<path d="M33.9689 60.9452C48.5742 60.9452 60.4141 49.1053 60.4141 34.5C60.4141 19.8947 48.5742 8.05481 33.9689 8.05481C19.3636 8.05481 7.52368 19.8947 7.52368 34.5C7.52368 49.1053 19.3636 60.9452 33.9689 60.9452Z" fill="url(#paint0_linear_21_308)"/>
</g>
<g filter="url(#filter1_iiii_21_308)">
<path fill-rule="evenodd" clip-rule="evenodd" d="M33.969 68.469C52.7299 68.469 67.938 53.2609 67.938 34.5C67.938 15.7391 52.7299 0.531006 33.969 0.531006C15.2081 0.531006 0 15.7416 0 34.5024C0 53.2609 15.2081 68.469 33.969 68.469ZM33.969 60.9452C48.574 60.9452 60.4142 49.105 60.4142 34.5C60.4142 19.895 48.574 8.05725 33.969 8.05725C19.364 8.05725 7.52381 19.895 7.52381 34.5C7.52381 49.105 19.364 60.9476 33.969 60.9476" fill="url(#paint1_linear_21_308)"/>
</g>
<g filter="url(#filter2_f_21_308)">
<path fill-rule="evenodd" clip-rule="evenodd" d="M19.1669 22.1005C18.9595 22.2324 18.7888 22.4146 18.6706 22.6302C18.5524 22.8457 18.4906 23.0876 18.4909 23.3334V24.0143C18.491 24.3106 18.5993 24.5967 18.7954 24.8188C18.9915 25.0409 19.262 25.1837 19.556 25.2204V43.6944H19.2934C18.9166 43.6947 18.5506 43.8199 18.2527 44.0505C17.9548 44.2811 17.7418 44.604 17.6471 44.9686L16.8932 47.8527C16.8464 48.0325 16.8414 48.2206 16.8787 48.4027C16.9159 48.5847 16.9943 48.7558 17.108 48.9028C17.2216 49.0498 17.3675 49.1688 17.5343 49.2506C17.7011 49.3325 17.8844 49.375 18.0702 49.3749H48.3454C48.5284 49.3752 48.709 49.3342 48.8739 49.2549C49.0388 49.1756 49.1837 49.0602 49.2978 48.9171C49.4118 48.774 49.4921 48.6071 49.5327 48.4287C49.5733 48.2503 49.5731 48.065 49.5321 47.8867L48.8706 45.0148C48.7842 44.6392 48.5728 44.304 48.2711 44.0642C47.9694 43.8243 47.5952 43.6939 47.2098 43.6944H46.9496V25.2132C47.2353 25.168 47.4955 25.0226 47.6836 24.8028C47.8717 24.5831 47.9753 24.3035 47.9758 24.0143V23.3334C47.9763 23.0878 47.9149 22.8461 47.7971 22.6306C47.6794 22.415 47.5091 22.2327 47.3022 22.1005L34.2121 13.7718C33.9193 13.5852 33.5793 13.4861 33.2321 13.4861C32.8849 13.4861 32.5449 13.5852 32.2521 13.7718L19.1669 22.1005ZM43.0369 43.6944V25.2302H39.1218V43.6944H43.0369ZM35.2091 43.6944V25.2302H31.294V43.6944H35.2091ZM27.3813 43.6944V25.2302H23.4687V43.6944H27.3813Z" fill="#DC7B3C"/>
</g>
<g filter="url(#filter3_ii_21_308)">
<path d="M19.2522 22.6477C19.2521 22.4025 19.3137 22.1612 19.4314 21.9462C19.5491 21.7311 19.7192 21.5492 19.9258 21.4172L33.0159 13.0861C33.3084 12.9 33.6479 12.8012 33.9946 12.8012C34.3413 12.8012 34.6809 12.9 34.9734 13.0861L48.061 21.4172C48.2681 21.5489 48.4386 21.7307 48.5568 21.9458C48.6749 22.1609 48.737 22.4023 48.7371 22.6477V23.3286C48.7371 23.651 48.609 23.9603 48.3809 24.1883C48.1529 24.4163 47.8437 24.5444 47.5212 24.5444H20.4681C20.1456 24.5444 19.8363 24.4163 19.6083 24.1883C19.3803 23.9603 19.2522 23.651 19.2522 23.3286V22.6477Z" fill="#FFC546"/>
</g>
<path d="M19.2522 22.6477C19.2521 22.4025 19.3137 22.1612 19.4314 21.9462C19.5491 21.7311 19.7192 21.5492 19.9258 21.4172L33.0159 13.0861C33.3084 12.9 33.6479 12.8012 33.9946 12.8012C34.3413 12.8012 34.6809 12.9 34.9734 13.0861L48.061 21.4172C48.2681 21.5489 48.4386 21.7307 48.5568 21.9458C48.6749 22.1609 48.737 22.4023 48.7371 22.6477V23.3286C48.7371 23.651 48.609 23.9603 48.3809 24.1883C48.1529 24.4163 47.8437 24.5444 47.5212 24.5444H20.4681C20.1456 24.5444 19.8363 24.4163 19.6083 24.1883C19.3803 23.9603 19.2522 23.651 19.2522 23.3286V22.6477Z" fill="url(#paint2_linear_21_308)"/>
<path d="M20.3147 24.0508C20.3147 23.8896 20.3787 23.7349 20.4928 23.6209C20.6068 23.5069 20.7614 23.4429 20.9226 23.4429H23.6219C23.7831 23.4429 23.9377 23.5069 24.0517 23.6209C24.1658 23.7349 24.2298 23.8896 24.2298 24.0508V43.5436H20.3147V24.0508Z" fill="url(#paint3_linear_21_308)"/>
<path d="M20.3147 24.0508C20.3147 23.8896 20.3787 23.7349 20.4928 23.6209C20.6068 23.5069 20.7614 23.4429 20.9226 23.4429H23.6219C23.7831 23.4429 23.9377 23.5069 24.0517 23.6209C24.1658 23.7349 24.2298 23.8896 24.2298 24.0508V43.5436H20.3147V24.0508Z" fill="url(#paint4_linear_21_308)"/>
<path d="M28.1426 23.4429H32.0553V43.5436H28.1426V23.4429Z" fill="url(#paint5_linear_21_308)"/>
<path d="M28.1426 23.4429H32.0553V43.5436H28.1426V23.4429Z" fill="url(#paint6_linear_21_308)"/>
<path d="M35.9702 23.4429H39.8829V43.5436H35.9702V23.4429Z" fill="url(#paint7_linear_21_308)"/>
<path d="M35.9702 23.4429H39.8829V43.5436H35.9702V23.4429Z" fill="url(#paint8_linear_21_308)"/>
<path d="M43.7957 23.4429H47.7083V43.5436H43.7957V23.4429Z" fill="url(#paint9_linear_21_308)"/>
<path d="M43.7957 23.4429H47.7083V43.5436H43.7957V23.4429Z" fill="url(#paint10_linear_21_308)"/>
<g filter="url(#filter4_ii_21_308)">
<path d="M18.4059 44.2829C18.5012 43.9183 18.7147 43.5956 19.0131 43.3655C19.3115 43.1353 19.6778 43.0107 20.0546 43.0111H47.971C48.356 43.0112 48.7296 43.1418 49.0309 43.3816C49.3321 43.6214 49.5431 43.9563 49.6294 44.3315L50.2933 47.201C50.3347 47.3794 50.3353 47.565 50.2949 47.7437C50.2545 47.9224 50.1743 48.0897 50.0601 48.233C49.946 48.3764 49.801 48.4921 49.6359 48.5715C49.4708 48.6509 49.2898 48.692 49.1066 48.6916H18.8314C18.6456 48.6917 18.4623 48.6491 18.2955 48.5673C18.1287 48.4854 17.9829 48.3665 17.8692 48.2195C17.7556 48.0725 17.6771 47.9014 17.6399 47.7194C17.6027 47.5373 17.6077 47.3492 17.6545 47.1694L18.4059 44.2829Z" fill="#FFC248"/>
</g>
<defs>
<filter id="filter0_i_21_308" x="7.27368" y="8.05481" width="53.1404" height="53.1404" filterUnits="userSpaceOnUse" color-interpolation-filters="sRGB">
<feFlood flood-opacity="0" result="BackgroundImageFix"/>
<feBlend mode="normal" in="SourceGraphic" in2="BackgroundImageFix" result="shape"/>
<feColorMatrix in="SourceAlpha" type="matrix" values="0 0 0 0 0 0 0 0 0 0 0 0 0 0 0 0 0 0 127 0" result="hardAlpha"/>
<feOffset dx="-0.25" dy="0.25"/>
<feGaussianBlur stdDeviation="0.5"/>
<feComposite in2="hardAlpha" operator="arithmetic" k2="-1" k3="1"/>
<feColorMatrix type="matrix" values="0 0 0 0 0.831373 0 0 0 0 0.45098 0 0 0 0 0.196078 0 0 0 1 0"/>
<feBlend mode="normal" in2="shape" result="effect1_innerShadow_21_308"/>
</filter>
<filter id="filter1_iiii_21_308" x="-0.3" y="0.231006" width="68.538" height="68.538" filterUnits="userSpaceOnUse" color-interpolation-filters="sRGB">
<feFlood flood-opacity="0" result="BackgroundImageFix"/>
<feBlend mode="normal" in="SourceGraphic" in2="BackgroundImageFix" result="shape"/>
<feColorMatrix in="SourceAlpha" type="matrix" values="0 0 0 0 0 0 0 0 0 0 0 0 0 0 0 0 0 0 127 0" result="hardAlpha"/>
<feOffset dx="0.3" dy="0.3"/>
<feGaussianBlur stdDeviation="0.3"/>
<feComposite in2="hardAlpha" operator="arithmetic" k2="-1" k3="1"/>
<feColorMatrix type="matrix" values="0 0 0 0 0.886275 0 0 0 0 0.662745 0 0 0 0 0.235294 0 0 0 1 0"/>
<feBlend mode="normal" in2="shape" result="effect1_innerShadow_21_308"/>
<feColorMatrix in="SourceAlpha" type="matrix" values="0 0 0 0 0 0 0 0 0 0 0 0 0 0 0 0 0 0 127 0" result="hardAlpha"/>
<feOffset dx="0.3" dy="-0.3"/>
<feGaussianBlur stdDeviation="0.3"/>
<feComposite in2="hardAlpha" operator="arithmetic" k2="-1" k3="1"/>
<feColorMatrix type="matrix" values="0 0 0 0 0.956863 0 0 0 0 0.607843 0 0 0 0 0.294118 0 0 0 1 0"/>
<feBlend mode="normal" in2="effect1_innerShadow_21_308" result="effect2_innerShadow_21_308"/>
<feColorMatrix in="SourceAlpha" type="matrix" values="0 0 0 0 0 0 0 0 0 0 0 0 0 0 0 0 0 0 127 0" result="hardAlpha"/>
<feOffset dy="-0.3"/>
<feGaussianBlur stdDeviation="0.3"/>
<feComposite in2="hardAlpha" operator="arithmetic" k2="-1" k3="1"/>
<feColorMatrix type="matrix" values="0 0 0 0 0.956863 0 0 0 0 0.607843 0 0 0 0 0.294118 0 0 0 1 0"/>
<feBlend mode="normal" in2="effect2_innerShadow_21_308" result="effect3_innerShadow_21_308"/>
<feColorMatrix in="SourceAlpha" type="matrix" values="0 0 0 0 0 0 0 0 0 0 0 0 0 0 0 0 0 0 127 0" result="hardAlpha"/>
<feOffset dx="-0.3" dy="0.3"/>
<feGaussianBlur stdDeviation="0.3"/>
<feComposite in2="hardAlpha" operator="arithmetic" k2="-1" k3="1"/>
<feColorMatrix type="matrix" values="0 0 0 0 1 0 0 0 0 0.882353 0 0 0 0 0.337255 0 0 0 1 0"/>
<feBlend mode="normal" in2="effect3_innerShadow_21_308" result="effect4_innerShadow_21_308"/>
</filter>
<filter id="filter2_f_21_308" x="16.254" y="12.8861" width="33.909" height="37.0888" filterUnits="userSpaceOnUse" color-interpolation-filters="sRGB">
<feFlood flood-opacity="0" result="BackgroundImageFix"/>
<feBlend mode="normal" in="SourceGraphic" in2="BackgroundImageFix" result="shape"/>
<feGaussianBlur stdDeviation="0.3" result="effect1_foregroundBlur_21_308"/>
</filter>
<filter id="filter3_ii_21_308" x="19.2522" y="12.5512" width="29.6349" height="12.2433" filterUnits="userSpaceOnUse" color-interpolation-filters="sRGB">
<feFlood flood-opacity="0" result="BackgroundImageFix"/>
<feBlend mode="normal" in="SourceGraphic" in2="BackgroundImageFix" result="shape"/>
<feColorMatrix in="SourceAlpha" type="matrix" values="0 0 0 0 0 0 0 0 0 0 0 0 0 0 0 0 0 0 127 0" result="hardAlpha"/>
<feOffset dy="-0.25"/>
<feGaussianBlur stdDeviation="0.25"/>
<feComposite in2="hardAlpha" operator="arithmetic" k2="-1" k3="1"/>
<feColorMatrix type="matrix" values="0 0 0 0 0.980392 0 0 0 0 0.647059 0 0 0 0 0.172549 0 0 0 1 0"/>
<feBlend mode="normal" in2="shape" result="effect1_innerShadow_21_308"/>
<feColorMatrix in="SourceAlpha" type="matrix" values="0 0 0 0 0 0 0 0 0 0 0 0 0 0 0 0 0 0 127 0" result="hardAlpha"/>
<feOffset dx="0.15" dy="0.25"/>
<feGaussianBlur stdDeviation="0.25"/>
<feComposite in2="hardAlpha" operator="arithmetic" k2="-1" k3="1"/>
<feColorMatrix type="matrix" values="0 0 0 0 0.980392 0 0 0 0 0.647059 0 0 0 0 0.172549 0 0 0 1 0"/>
<feBlend mode="normal" in2="effect1_innerShadow_21_308" result="effect2_innerShadow_21_308"/>
</filter>
<filter id="filter4_ii_21_308" x="17.3652" y="42.7611" width="33.2095" height="6.18054" filterUnits="userSpaceOnUse" color-interpolation-filters="sRGB">
<feFlood flood-opacity="0" result="BackgroundImageFix"/>
<feBlend mode="normal" in="SourceGraphic" in2="BackgroundImageFix" result="shape"/>
<feColorMatrix in="SourceAlpha" type="matrix" values="0 0 0 0 0 0 0 0 0 0 0 0 0 0 0 0 0 0 127 0" result="hardAlpha"/>
<feOffset dx="0.25" dy="-0.25"/>
<feGaussianBlur stdDeviation="0.2"/>
<feComposite in2="hardAlpha" operator="arithmetic" k2="-1" k3="1"/>
<feColorMatrix type="matrix" values="0 0 0 0 0.992157 0 0 0 0 0.658824 0 0 0 0 0.0705882 0 0 0 1 0"/>
<feBlend mode="normal" in2="shape" result="effect1_innerShadow_21_308"/>
<feColorMatrix in="SourceAlpha" type="matrix" values="0 0 0 0 0 0 0 0 0 0 0 0 0 0 0 0 0 0 127 0" result="hardAlpha"/>
<feOffset dx="-0.25" dy="0.25"/>
<feGaussianBlur stdDeviation="0.2"/>
<feComposite in2="hardAlpha" operator="arithmetic" k2="-1" k3="1"/>
<feColorMatrix type="matrix" values="0 0 0 0 1 0 0 0 0 0.8 0 0 0 0 0.290196 0 0 0 1 0"/>
<feBlend mode="normal" in2="effect1_innerShadow_21_308" result="effect2_innerShadow_21_308"/>
</filter>
<linearGradient id="paint0_linear_21_308" x1="23.1792" y1="47.7238" x2="51.7522" y2="11.7024" gradientUnits="userSpaceOnUse">
<stop stop-color="#F19D48"/>
<stop offset="1" stop-color="#E89A44"/>
</linearGradient>
<linearGradient id="paint1_linear_21_308" x1="33.969" y1="0.531006" x2="33.969" y2="68.469" gradientUnits="userSpaceOnUse">
<stop stop-color="#FFC444"/>
<stop offset="1" stop-color="#FFC24B"/>
</linearGradient>
<linearGradient id="paint2_linear_21_308" x1="42.0255" y1="17.1738" x2="41.0357" y2="18.6742" gradientUnits="userSpaceOnUse">
<stop offset="0.459" stop-color="#FFCA3F"/>
<stop offset="1" stop-color="#FFCA3F" stop-opacity="0"/>
</linearGradient>
<linearGradient id="paint3_linear_21_308" x1="20.6697" y1="31.205" x2="22.5714" y2="31.205" gradientUnits="userSpaceOnUse">
<stop offset="0.167" stop-color="#FFB33B"/>
<stop offset="1" stop-color="#FFC047"/>
</linearGradient>
<linearGradient id="paint4_linear_21_308" x1="24.2298" y1="35.1614" x2="23.2911" y2="35.1614" gradientUnits="userSpaceOnUse">
<stop offset="0.067" stop-color="#FFC34C"/>
<stop offset="1" stop-color="#FFC34C" stop-opacity="0"/>
</linearGradient>
<linearGradient id="paint5_linear_21_308" x1="28.4976" y1="31.205" x2="30.3968" y2="31.205" gradientUnits="userSpaceOnUse">
<stop offset="0.167" stop-color="#FFB33B"/>
<stop offset="1" stop-color="#FFC047"/>
</linearGradient>
<linearGradient id="paint6_linear_21_308" x1="32.0553" y1="35.1614" x2="31.119" y2="35.1614" gradientUnits="userSpaceOnUse">
<stop offset="0.067" stop-color="#FFC34C"/>
<stop offset="1" stop-color="#FFC34C" stop-opacity="0"/>
</linearGradient>
<linearGradient id="paint7_linear_21_308" x1="36.3252" y1="31.205" x2="38.2244" y2="31.205" gradientUnits="userSpaceOnUse">
<stop offset="0.167" stop-color="#FFB33B"/>
<stop offset="1" stop-color="#FFC047"/>
</linearGradient>
<linearGradient id="paint8_linear_21_308" x1="39.8829" y1="35.1614" x2="38.9467" y2="35.1614" gradientUnits="userSpaceOnUse">
<stop offset="0.067" stop-color="#FFC34C"/>
<stop offset="1" stop-color="#FFC34C" stop-opacity="0"/>
</linearGradient>
<linearGradient id="paint9_linear_21_308" x1="44.1531" y1="31.205" x2="46.0523" y2="31.205" gradientUnits="userSpaceOnUse">
<stop offset="0.167" stop-color="#FFB33B"/>
<stop offset="1" stop-color="#FFC047"/>
</linearGradient>
<linearGradient id="paint10_linear_21_308" x1="47.7108" y1="35.1614" x2="46.7745" y2="35.1614" gradientUnits="userSpaceOnUse">
<stop offset="0.067" stop-color="#FFC34C"/>
<stop offset="1" stop-color="#FFC34C" stop-opacity="0"/>
</linearGradient>
</defs>
</svg>
