<svg width="68" height="68" viewBox="0 0 68 68" fill="none" xmlns="http://www.w3.org/2000/svg">
<g filter="url(#filter0_i_41_57)">
<path d="M33.9689 60.4142C48.5742 60.4142 60.4141 48.5743 60.4141 33.969C60.4141 19.3637 48.5742 7.52379 33.9689 7.52379C19.3636 7.52379 7.52368 19.3637 7.52368 33.969C7.52368 48.5743 19.3636 60.4142 33.9689 60.4142Z" fill="url(#paint0_linear_41_57)"/>
</g>
<g filter="url(#filter1_iiii_41_57)">
<path fill-rule="evenodd" clip-rule="evenodd" d="M33.969 67.938C52.7299 67.938 67.938 52.7299 67.938 33.969C67.938 15.2081 52.7299 0 33.969 0C15.2081 0 0 15.2105 0 33.9714C0 52.7299 15.2081 67.938 33.969 67.938ZM33.969 60.4142C48.574 60.4142 60.4142 48.574 60.4142 33.969C60.4142 19.364 48.574 7.52624 33.969 7.52624C19.364 7.52624 7.52381 19.364 7.52381 33.969C7.52381 48.574 19.364 60.4166 33.969 60.4166" fill="url(#paint1_linear_41_57)"/>
</g>
<g filter="url(#filter2_f_41_57)">
<path fill-rule="evenodd" clip-rule="evenodd" d="M19.1669 21.5695C18.9595 21.7014 18.7888 21.8836 18.6706 22.0992C18.5524 22.3147 18.4906 22.5566 18.4909 22.8024V23.4833C18.491 23.7796 18.5993 24.0657 18.7954 24.2878C18.9915 24.5099 19.262 24.6527 19.556 24.6894V43.1634H19.2934C18.9166 43.1637 18.5506 43.2889 18.2527 43.5195C17.9548 43.7501 17.7418 44.073 17.6471 44.4376L16.8932 47.3217C16.8464 47.5015 16.8414 47.6896 16.8787 47.8717C16.9159 48.0537 16.9943 48.2248 17.108 48.3718C17.2216 48.5188 17.3675 48.6377 17.5343 48.7196C17.7011 48.8014 17.8844 48.844 18.0702 48.8439H48.3454C48.5284 48.8442 48.709 48.8032 48.8739 48.7239C49.0388 48.6446 49.1837 48.5291 49.2978 48.3861C49.4118 48.243 49.4921 48.0761 49.5327 47.8977C49.5733 47.7193 49.5731 47.534 49.5321 47.3557L48.8706 44.4838C48.7842 44.1082 48.5728 43.773 48.2711 43.5332C47.9694 43.2933 47.5952 43.1629 47.2098 43.1634H46.9496V24.6821C47.2353 24.637 47.4955 24.4915 47.6836 24.2718C47.8717 24.0521 47.9753 23.7725 47.9758 23.4833V22.8024C47.9763 22.5568 47.9149 22.3151 47.7971 22.0996C47.6794 21.884 47.5091 21.7017 47.3022 21.5695L34.2121 13.2408C33.9193 13.0542 33.5793 12.9551 33.2321 12.9551C32.8849 12.9551 32.5449 13.0542 32.2521 13.2408L19.1669 21.5695ZM43.0369 43.1634V24.6992H39.1218V43.1634H43.0369ZM35.2091 43.1634V24.6992H31.294V43.1634H35.2091ZM27.3813 43.1634V24.6992H23.4687V43.1634H27.3813Z" fill="#DC7B3C"/>
</g>
<g filter="url(#filter3_ii_41_57)">
<path d="M19.2522 22.1167C19.2521 21.8715 19.3137 21.6302 19.4314 21.4152C19.5491 21.2001 19.7192 21.0182 19.9258 20.8862L33.0159 12.5551C33.3084 12.369 33.6479 12.2702 33.9946 12.2702C34.3413 12.2702 34.6809 12.369 34.9734 12.5551L48.061 20.8862C48.2681 21.0179 48.4386 21.1997 48.5568 21.4148C48.6749 21.6299 48.737 21.8713 48.7371 22.1167V22.7976C48.7371 23.12 48.609 23.4293 48.3809 23.6573C48.1529 23.8853 47.8437 24.0134 47.5212 24.0134H20.4681C20.1456 24.0134 19.8363 23.8853 19.6083 23.6573C19.3803 23.4293 19.2522 23.12 19.2522 22.7976V22.1167Z" fill="#FFC546"/>
</g>
<path d="M19.2522 22.1167C19.2521 21.8715 19.3137 21.6302 19.4314 21.4152C19.5491 21.2001 19.7192 21.0182 19.9258 20.8862L33.0159 12.5551C33.3084 12.369 33.6479 12.2702 33.9946 12.2702C34.3413 12.2702 34.6809 12.369 34.9734 12.5551L48.061 20.8862C48.2681 21.0179 48.4386 21.1997 48.5568 21.4148C48.6749 21.6299 48.737 21.8713 48.7371 22.1167V22.7976C48.7371 23.12 48.609 23.4293 48.3809 23.6573C48.1529 23.8853 47.8437 24.0134 47.5212 24.0134H20.4681C20.1456 24.0134 19.8363 23.8853 19.6083 23.6573C19.3803 23.4293 19.2522 23.12 19.2522 22.7976V22.1167Z" fill="url(#paint2_linear_41_57)"/>
<path d="M20.3147 23.5198C20.3147 23.3586 20.3787 23.2039 20.4928 23.0899C20.6068 22.9759 20.7614 22.9119 20.9226 22.9119H23.6219C23.7831 22.9119 23.9377 22.9759 24.0517 23.0899C24.1658 23.2039 24.2298 23.3586 24.2298 23.5198V43.0126H20.3147V23.5198Z" fill="url(#paint3_linear_41_57)"/>
<path d="M20.3147 23.5198C20.3147 23.3586 20.3787 23.2039 20.4928 23.0899C20.6068 22.9759 20.7614 22.9119 20.9226 22.9119H23.6219C23.7831 22.9119 23.9377 22.9759 24.0517 23.0899C24.1658 23.2039 24.2298 23.3586 24.2298 23.5198V43.0126H20.3147V23.5198Z" fill="url(#paint4_linear_41_57)"/>
<path d="M28.1426 22.9119H32.0553V43.0126H28.1426V22.9119Z" fill="url(#paint5_linear_41_57)"/>
<path d="M28.1426 22.9119H32.0553V43.0126H28.1426V22.9119Z" fill="url(#paint6_linear_41_57)"/>
<path d="M35.9702 22.9119H39.8829V43.0126H35.9702V22.9119Z" fill="url(#paint7_linear_41_57)"/>
<path d="M35.9702 22.9119H39.8829V43.0126H35.9702V22.9119Z" fill="url(#paint8_linear_41_57)"/>
<path d="M43.7957 22.9119H47.7083V43.0126H43.7957V22.9119Z" fill="url(#paint9_linear_41_57)"/>
<path d="M43.7957 22.9119H47.7083V43.0126H43.7957V22.9119Z" fill="url(#paint10_linear_41_57)"/>
<g filter="url(#filter4_ii_41_57)">
<path d="M18.4059 43.7519C18.5012 43.3873 18.7147 43.0647 19.0131 42.8345C19.3115 42.6043 19.6778 42.4797 20.0546 42.4801H47.971C48.356 42.4802 48.7296 42.6108 49.0309 42.8506C49.3321 43.0905 49.5431 43.4253 49.6294 43.8005L50.2933 46.67C50.3347 46.8485 50.3353 47.034 50.2949 47.2127C50.2545 47.3914 50.1743 47.5587 50.0601 47.702C49.946 47.8454 49.801 47.9611 49.6359 48.0405C49.4708 48.1199 49.2898 48.161 49.1066 48.1606H18.8314C18.6456 48.1607 18.4623 48.1182 18.2955 48.0363C18.1287 47.9545 17.9829 47.8355 17.8692 47.6885C17.7556 47.5415 17.6771 47.3704 17.6399 47.1884C17.6027 47.0063 17.6077 46.8182 17.6545 46.6384L18.4059 43.7519Z" fill="#FFC248"/>
</g>
<defs>
<filter id="filter0_i_41_57" x="7.27368" y="7.52379" width="53.1404" height="53.1404" filterUnits="userSpaceOnUse" color-interpolation-filters="sRGB">
<feFlood flood-opacity="0" result="BackgroundImageFix"/>
<feBlend mode="normal" in="SourceGraphic" in2="BackgroundImageFix" result="shape"/>
<feColorMatrix in="SourceAlpha" type="matrix" values="0 0 0 0 0 0 0 0 0 0 0 0 0 0 0 0 0 0 127 0" result="hardAlpha"/>
<feOffset dx="-0.25" dy="0.25"/>
<feGaussianBlur stdDeviation="0.5"/>
<feComposite in2="hardAlpha" operator="arithmetic" k2="-1" k3="1"/>
<feColorMatrix type="matrix" values="0 0 0 0 0.831373 0 0 0 0 0.45098 0 0 0 0 0.196078 0 0 0 1 0"/>
<feBlend mode="normal" in2="shape" result="effect1_innerShadow_41_57"/>
</filter>
<filter id="filter1_iiii_41_57" x="-0.3" y="-0.3" width="68.538" height="68.538" filterUnits="userSpaceOnUse" color-interpolation-filters="sRGB">
<feFlood flood-opacity="0" result="BackgroundImageFix"/>
<feBlend mode="normal" in="SourceGraphic" in2="BackgroundImageFix" result="shape"/>
<feColorMatrix in="SourceAlpha" type="matrix" values="0 0 0 0 0 0 0 0 0 0 0 0 0 0 0 0 0 0 127 0" result="hardAlpha"/>
<feOffset dx="0.3" dy="0.3"/>
<feGaussianBlur stdDeviation="0.3"/>
<feComposite in2="hardAlpha" operator="arithmetic" k2="-1" k3="1"/>
<feColorMatrix type="matrix" values="0 0 0 0 0.886275 0 0 0 0 0.662745 0 0 0 0 0.235294 0 0 0 1 0"/>
<feBlend mode="normal" in2="shape" result="effect1_innerShadow_41_57"/>
<feColorMatrix in="SourceAlpha" type="matrix" values="0 0 0 0 0 0 0 0 0 0 0 0 0 0 0 0 0 0 127 0" result="hardAlpha"/>
<feOffset dx="0.3" dy="-0.3"/>
<feGaussianBlur stdDeviation="0.3"/>
<feComposite in2="hardAlpha" operator="arithmetic" k2="-1" k3="1"/>
<feColorMatrix type="matrix" values="0 0 0 0 0.956863 0 0 0 0 0.607843 0 0 0 0 0.294118 0 0 0 1 0"/>
<feBlend mode="normal" in2="effect1_innerShadow_41_57" result="effect2_innerShadow_41_57"/>
<feColorMatrix in="SourceAlpha" type="matrix" values="0 0 0 0 0 0 0 0 0 0 0 0 0 0 0 0 0 0 127 0" result="hardAlpha"/>
<feOffset dy="-0.3"/>
<feGaussianBlur stdDeviation="0.3"/>
<feComposite in2="hardAlpha" operator="arithmetic" k2="-1" k3="1"/>
<feColorMatrix type="matrix" values="0 0 0 0 0.956863 0 0 0 0 0.607843 0 0 0 0 0.294118 0 0 0 1 0"/>
<feBlend mode="normal" in2="effect2_innerShadow_41_57" result="effect3_innerShadow_41_57"/>
<feColorMatrix in="SourceAlpha" type="matrix" values="0 0 0 0 0 0 0 0 0 0 0 0 0 0 0 0 0 0 127 0" result="hardAlpha"/>
<feOffset dx="-0.3" dy="0.3"/>
<feGaussianBlur stdDeviation="0.3"/>
<feComposite in2="hardAlpha" operator="arithmetic" k2="-1" k3="1"/>
<feColorMatrix type="matrix" values="0 0 0 0 1 0 0 0 0 0.882353 0 0 0 0 0.337255 0 0 0 1 0"/>
<feBlend mode="normal" in2="effect3_innerShadow_41_57" result="effect4_innerShadow_41_57"/>
</filter>
<filter id="filter2_f_41_57" x="16.254" y="12.3551" width="33.909" height="37.0888" filterUnits="userSpaceOnUse" color-interpolation-filters="sRGB">
<feFlood flood-opacity="0" result="BackgroundImageFix"/>
<feBlend mode="normal" in="SourceGraphic" in2="BackgroundImageFix" result="shape"/>
<feGaussianBlur stdDeviation="0.3" result="effect1_foregroundBlur_41_57"/>
</filter>
<filter id="filter3_ii_41_57" x="19.2522" y="12.0202" width="29.6349" height="12.2433" filterUnits="userSpaceOnUse" color-interpolation-filters="sRGB">
<feFlood flood-opacity="0" result="BackgroundImageFix"/>
<feBlend mode="normal" in="SourceGraphic" in2="BackgroundImageFix" result="shape"/>
<feColorMatrix in="SourceAlpha" type="matrix" values="0 0 0 0 0 0 0 0 0 0 0 0 0 0 0 0 0 0 127 0" result="hardAlpha"/>
<feOffset dy="-0.25"/>
<feGaussianBlur stdDeviation="0.25"/>
<feComposite in2="hardAlpha" operator="arithmetic" k2="-1" k3="1"/>
<feColorMatrix type="matrix" values="0 0 0 0 0.980392 0 0 0 0 0.647059 0 0 0 0 0.172549 0 0 0 1 0"/>
<feBlend mode="normal" in2="shape" result="effect1_innerShadow_41_57"/>
<feColorMatrix in="SourceAlpha" type="matrix" values="0 0 0 0 0 0 0 0 0 0 0 0 0 0 0 0 0 0 127 0" result="hardAlpha"/>
<feOffset dx="0.15" dy="0.25"/>
<feGaussianBlur stdDeviation="0.25"/>
<feComposite in2="hardAlpha" operator="arithmetic" k2="-1" k3="1"/>
<feColorMatrix type="matrix" values="0 0 0 0 0.980392 0 0 0 0 0.647059 0 0 0 0 0.172549 0 0 0 1 0"/>
<feBlend mode="normal" in2="effect1_innerShadow_41_57" result="effect2_innerShadow_41_57"/>
</filter>
<filter id="filter4_ii_41_57" x="17.3652" y="42.2301" width="33.2095" height="6.18055" filterUnits="userSpaceOnUse" color-interpolation-filters="sRGB">
<feFlood flood-opacity="0" result="BackgroundImageFix"/>
<feBlend mode="normal" in="SourceGraphic" in2="BackgroundImageFix" result="shape"/>
<feColorMatrix in="SourceAlpha" type="matrix" values="0 0 0 0 0 0 0 0 0 0 0 0 0 0 0 0 0 0 127 0" result="hardAlpha"/>
<feOffset dx="0.25" dy="-0.25"/>
<feGaussianBlur stdDeviation="0.2"/>
<feComposite in2="hardAlpha" operator="arithmetic" k2="-1" k3="1"/>
<feColorMatrix type="matrix" values="0 0 0 0 0.992157 0 0 0 0 0.658824 0 0 0 0 0.0705882 0 0 0 1 0"/>
<feBlend mode="normal" in2="shape" result="effect1_innerShadow_41_57"/>
<feColorMatrix in="SourceAlpha" type="matrix" values="0 0 0 0 0 0 0 0 0 0 0 0 0 0 0 0 0 0 127 0" result="hardAlpha"/>
<feOffset dx="-0.25" dy="0.25"/>
<feGaussianBlur stdDeviation="0.2"/>
<feComposite in2="hardAlpha" operator="arithmetic" k2="-1" k3="1"/>
<feColorMatrix type="matrix" values="0 0 0 0 1 0 0 0 0 0.8 0 0 0 0 0.290196 0 0 0 1 0"/>
<feBlend mode="normal" in2="effect1_innerShadow_41_57" result="effect2_innerShadow_41_57"/>
</filter>
<linearGradient id="paint0_linear_41_57" x1="23.1792" y1="47.1928" x2="51.7522" y2="11.1714" gradientUnits="userSpaceOnUse">
<stop stop-color="#F19D48"/>
<stop offset="1" stop-color="#E89A44"/>
</linearGradient>
<linearGradient id="paint1_linear_41_57" x1="33.969" y1="0" x2="33.969" y2="67.938" gradientUnits="userSpaceOnUse">
<stop stop-color="#FFC444"/>
<stop offset="1" stop-color="#FFC24B"/>
</linearGradient>
<linearGradient id="paint2_linear_41_57" x1="42.0255" y1="16.6428" x2="41.0357" y2="18.1432" gradientUnits="userSpaceOnUse">
<stop offset="0.459" stop-color="#FFCA3F"/>
<stop offset="1" stop-color="#FFCA3F" stop-opacity="0"/>
</linearGradient>
<linearGradient id="paint3_linear_41_57" x1="20.6697" y1="30.674" x2="22.5714" y2="30.674" gradientUnits="userSpaceOnUse">
<stop offset="0.167" stop-color="#FFB33B"/>
<stop offset="1" stop-color="#FFC047"/>
</linearGradient>
<linearGradient id="paint4_linear_41_57" x1="24.2298" y1="34.6304" x2="23.2911" y2="34.6304" gradientUnits="userSpaceOnUse">
<stop offset="0.067" stop-color="#FFC34C"/>
<stop offset="1" stop-color="#FFC34C" stop-opacity="0"/>
</linearGradient>
<linearGradient id="paint5_linear_41_57" x1="28.4976" y1="30.674" x2="30.3968" y2="30.674" gradientUnits="userSpaceOnUse">
<stop offset="0.167" stop-color="#FFB33B"/>
<stop offset="1" stop-color="#FFC047"/>
</linearGradient>
<linearGradient id="paint6_linear_41_57" x1="32.0553" y1="34.6304" x2="31.119" y2="34.6304" gradientUnits="userSpaceOnUse">
<stop offset="0.067" stop-color="#FFC34C"/>
<stop offset="1" stop-color="#FFC34C" stop-opacity="0"/>
</linearGradient>
<linearGradient id="paint7_linear_41_57" x1="36.3252" y1="30.674" x2="38.2244" y2="30.674" gradientUnits="userSpaceOnUse">
<stop offset="0.167" stop-color="#FFB33B"/>
<stop offset="1" stop-color="#FFC047"/>
</linearGradient>
<linearGradient id="paint8_linear_41_57" x1="39.8829" y1="34.6304" x2="38.9467" y2="34.6304" gradientUnits="userSpaceOnUse">
<stop offset="0.067" stop-color="#FFC34C"/>
<stop offset="1" stop-color="#FFC34C" stop-opacity="0"/>
</linearGradient>
<linearGradient id="paint9_linear_41_57" x1="44.1531" y1="30.674" x2="46.0523" y2="30.674" gradientUnits="userSpaceOnUse">
<stop offset="0.167" stop-color="#FFB33B"/>
<stop offset="1" stop-color="#FFC047"/>
</linearGradient>
<linearGradient id="paint10_linear_41_57" x1="47.7108" y1="34.6304" x2="46.7745" y2="34.6304" gradientUnits="userSpaceOnUse">
<stop offset="0.067" stop-color="#FFC34C"/>
<stop offset="1" stop-color="#FFC34C" stop-opacity="0"/>
</linearGradient>
</defs>
</svg>
